<?xml version="1.0" encoding="utf-8"?>
<!-- Generator: Adobe Illustrator 16.0.0, SVG Export Plug-In . SVG Version: 6.00 Build 0)  -->
<!DOCTYPE svg PUBLIC "-//W3C//DTD SVG 1.1//EN" "http://www.w3.org/Graphics/SVG/1.1/DTD/svg11.dtd">
<svg version="1.1" id="Calque_1" xmlns="http://www.w3.org/2000/svg" xmlns:xlink="http://www.w3.org/1999/xlink" x="0px" y="0px"
	 width="100.001px" height="86px" viewBox="370.336 254.319 100.001 86" enable-background="new 370.336 254.319 100.001 86"
	 xml:space="preserve">
<path fill="#FFFFFF" d="M373.785,303.973l6.815,1.689l5.133-8.057l-9.752-2.418c-2.441-0.606-4.904,0.873-5.51,3.299
	C369.866,300.913,371.349,303.368,373.785,303.973z M462.742,305.275l-22.312,20.086l-26.237-20.303
	c-0.5-0.387-1.076-0.665-1.691-0.817l-3.493-0.865l-5.132,8.057l5.497,1.362l28.488,22.044c0.824,0.637,1.809,0.952,2.789,0.952
	c1.096,0,2.188-0.394,3.049-1.168l25.141-22.633c1.861-1.676,2.006-4.537,0.324-6.393
	C467.48,303.744,464.605,303.598,462.742,305.275z M413.756,283.219l24.437,15.644c2.062,1.318,4.803,0.773,6.197-1.232
	l25.141-36.21c1.428-2.057,0.91-4.875-1.154-6.297c-2.066-1.423-4.895-0.907-6.324,1.148l-22.641,32.609l-24.585-15.738
	c-1.019-0.65-2.254-0.869-3.438-0.612c-1.182,0.261-2.21,0.979-2.857,1.995l-37.483,58.842c-1.346,2.11-0.717,4.907,1.402,6.246
	c0.755,0.478,1.598,0.705,2.431,0.705c1.505,0,2.978-0.742,3.842-2.103L413.756,283.219z"/>
</svg>
