<?xml version="1.0" encoding="utf-8"?>
<!-- Generator: Adobe Illustrator 16.0.0, SVG Export Plug-In . SVG Version: 6.00 Build 0)  -->
<!DOCTYPE svg PUBLIC "-//W3C//DTD SVG 1.1//EN" "http://www.w3.org/Graphics/SVG/1.1/DTD/svg11.dtd">
<svg version="1.1" id="Calque_1" xmlns="http://www.w3.org/2000/svg" xmlns:xlink="http://www.w3.org/1999/xlink" x="0px" y="0px"
	 width="100px" height="79.998px" viewBox="370.611 257.318 100 79.998" enable-background="new 370.611 257.318 100 79.998"
	 xml:space="preserve">
<g>
	<path fill="#FFFFFF" d="M465.962,282.317h-90.7c-4.604,0-4.834,2.241-4.584,4.979l4.127,45.041c0.25,2.737,0.898,4.979,5.496,4.979
		h80.622c4.689,0,5.244-2.241,5.494-4.979l4.127-45.041C470.794,284.559,470.566,282.317,465.962,282.317z M462.634,271.317
		c-0.555-2.2-3.273-4-6.047-4h-34.072c-2.771,0-6.644-1.588-8.607-3.527l-2.979-2.943c-1.963-1.94-5.836-3.528-8.606-3.528h-16.279
		c-2.771,0-5.289,2.236-5.594,4.971l-1.461,13.029h84.656L462.634,271.317z"/>
</g>
</svg>
