<?xml version="1.0" encoding="utf-8"?>
<!-- Generator: Adobe Illustrator 16.0.0, SVG Export Plug-In . SVG Version: 6.00 Build 0)  -->
<!DOCTYPE svg PUBLIC "-//W3C//DTD SVG 1.1//EN" "http://www.w3.org/Graphics/SVG/1.1/DTD/svg11.dtd">
<svg version="1.1" id="Calque_1" xmlns="http://www.w3.org/2000/svg" xmlns:xlink="http://www.w3.org/1999/xlink" x="0px" y="0px"
	 width="91.5px" height="96.763px" viewBox="374.579 248.817 91.5 96.763" enable-background="new 374.579 248.817 91.5 96.763"
	 xml:space="preserve">
<g>
	<g>
		<path fill="#FFFFFF" d="M434.58,255.579h-50c-5.5,0-10,4.5-10,10v70c0,5.5,4.5,10,10,10h50c5.5,0,10-4.5,10-10v-70
			C444.58,260.079,440.08,255.579,434.58,255.579z M434.58,335.579h-50v-70h50V335.579z"/>
	</g>
	<polygon fill="#FFFFFF" stroke="#FFFFFF" stroke-width="3" stroke-miterlimit="10" points="449.58,265.317 449.58,250.317 
		439.58,250.317 439.58,265.317 424.58,265.317 424.58,275.317 439.58,275.317 439.58,290.317 449.58,290.317 449.58,275.317 
		464.58,275.317 464.58,265.317 	"/>
</g>
</svg>
